<?xml version="1.0" encoding="UTF-8"?><svg id="svg_canvas" data-noselect="" viewBox="0 0 800 600" width="800" height="600" preserveAspectRatio="none" version="1.1" xmlns="http://www.w3.org/2000/svg" xmlns:xlink="http://www.w3.org/1999/xlink"><defs></defs> <g id="background" data-noselect=""><rect fill="rgb(255, 255, 255)" width="800" height="600" data-noselect=""></rect> <!----></g> <g id="shape_rqaiC6lOMX" transform="translate(323.1470970983386,141.82406427105497) rotate(0,88.502405347286,88.449183580984) scale(1,1)" filter="" style="cursor: move; opacity: 1;"><g><rect fill="rgba(0,0,0,0)" width="173.7058058033208" height="196.89836716197" x="-10" y="-10"></rect><svg version="1.1" id="图层_1" xmlns="http://www.w3.org/2000/svg" xmlns:xlink="http://www.w3.org/1999/xlink" x="0px" y="0px" viewBox="0 0 174.29998779296875 200.59999084472656" style="enable-background:new 0 0 174.3 200.6;" xml:space="preserve" width="153.7058058033208" height="176.89836716197" class="style-removed" preserveAspectRatio="none" data-parent="shape_rqaiC6lOMX">

<g>
	<rect x="0" y="161.8" width="19.4" height="19.4" fill="#3DB200" stroke-width="0"></rect>
	<rect x="0" y="134.8" width="19.4" height="19.4" fill="#3DB200" stroke-width="0"></rect>
	<rect x="0" y="107.9" width="19.4" height="19.4" fill="#3DB200" stroke-width="0"></rect>
	<rect x="0" y="80.9" width="19.4" height="19.4" fill="#3DB200" stroke-width="0"></rect>
	<rect x="0" y="53.9" width="19.4" height="19.4" fill="#3DB200" stroke-width="0"></rect>
	<rect x="0" y="27" width="19.4" height="19.4" fill="#3DB200" stroke-width="0"></rect>
	<rect x="0" y="0" width="19.4" height="19.4" fill="#3DB200" stroke-width="0"></rect>
	<rect x="27.1" y="161.8" width="19.4" height="19.4" fill="#3DB200" stroke-width="0"></rect>
	<polygon points="27.1,134.8 27.1,154.2 46.5,154.2 	" fill="#3DB200" stroke-width="0"></polygon>
	<rect x="27.1" y="80.9" width="19.4" height="19.4" fill="#3DB200" stroke-width="0"></rect>
	<rect x="27.1" y="53.9" width="19.4" height="19.4" fill="#3DB200" stroke-width="0"></rect>
	<rect x="27.1" y="27" width="19.4" height="19.4" fill="#3DB200" stroke-width="0"></rect>
	<rect x="27.1" y="0" width="19.4" height="19.4" fill="#3DB200" stroke-width="0"></rect>
	<rect x="54.2" y="161.8" width="19.4" height="19.4" fill="#3DB200" stroke-width="0"></rect>
	<rect x="54.2" y="107.9" width="19.4" height="19.4" fill="#3DB200" stroke-width="0"></rect>
	<rect x="54.2" y="80.9" width="19.4" height="19.4" fill="#3DB200" stroke-width="0"></rect>
	<rect x="54.2" y="53.9" width="19.4" height="19.4" fill="#3DB200" stroke-width="0"></rect>
	<rect x="54.2" y="27" width="19.4" height="19.4" fill="#3DB200" stroke-width="0"></rect>
	<rect x="54.2" y="0" width="19.4" height="19.4" fill="#3DB200" stroke-width="0"></rect>
	<rect x="81.3" y="161.8" width="19.4" height="19.4" fill="#3DB200" stroke-width="0"></rect>
	<rect x="81.3" y="107.9" width="19.4" height="19.4" fill="#3DB200" stroke-width="0"></rect>
	<rect x="81.3" y="80.9" width="19.4" height="19.4" fill="#3DB200" stroke-width="0"></rect>
	<rect x="81.3" y="53.9" width="19.4" height="19.4" fill="#3DB200" stroke-width="0"></rect>
	<rect x="81.3" y="27" width="19.4" height="19.4" fill="#3DB200" stroke-width="0"></rect>
	<rect x="81.3" y="0" width="19.4" height="19.4" fill="#3DB200" stroke-width="0"></rect>
	<rect x="108.4" y="161.8" width="19.4" height="19.4" fill="#3DB200" stroke-width="0"></rect>
	<polygon points="127.8,134.8 108.4,154.2 127.8,154.2 	" fill="#3DB200" stroke-width="0"></polygon>
	<rect x="108.4" y="0" width="19.4" height="19.4" fill="#3DB200" stroke-width="0"></rect>
	<rect x="154.9" y="181.2" width="19.4" height="19.4" fill="#3DB200" stroke-width="0"></rect>
	<rect x="135.5" y="134.8" width="19.4" height="19.4" fill="#3DB200" stroke-width="0"></rect>
	<rect x="135.5" y="107.9" width="19.4" height="19.4" fill="#3DB200" stroke-width="0"></rect>
	<rect x="135.5" y="80.9" width="19.4" height="19.4" fill="#3DB200" stroke-width="0"></rect>
	<rect x="135.5" y="53.9" width="19.4" height="19.4" fill="#3DB200" stroke-width="0"></rect>
	<rect x="135.5" y="27" width="19.4" height="19.4" fill="#3DB200" stroke-width="0"></rect>
	<rect x="135.5" y="0" width="19.4" height="19.4" fill="#3DB200" stroke-width="0"></rect>
</g>
</svg></g></g><g id="shape_zPvlyINo7v" transform="translate(78.91,-9.594064271055004) rotate(0,460.10638902129006,401.27) scale(1,1)" filter="" style="cursor: move; opacity: 1;"><g><svg xmlns="http://www.w3.org/2000/svg" version="1.1" xmlns:xlink="http://www.w3.org/1999/xlink" width="865.36" height="802.54" viewBox="0 0 865.36 802.54" data-parent="shape_zPvlyINo7v"><rect fill="rgba(0,0,0,0)" width="419" height="133" x="111.59" y="334.77"></rect><g data-width="418.57409" transform="translate(111.802955, 0)"><path d="M18.41 0L1.56 0L1.56-13.28L16.74-13.28Q23.88-13.28 27.28-13.78Q30.69-14.28 32.47-15.85L32.47-15.85Q34.93-17.74 35.88-21.31Q36.82-24.88 36.82-32.58L36.82-32.58L36.82-74.43L52.56-74.43L52.56-32.58Q52.56-24.77 52.00-20.76Q51.44-16.74 49.77-13.17L49.77-13.17Q45.53-3.68 34.37-1.00L34.37-1.00Q29.01 0 18.41 0L18.41 0Z" transform="translate(0 440.77) " fill="rgb(53, 53, 53)" stroke="rgb(53, 53, 53)" stroke-width="0.186" data-glyph-w="59.365880000000004" data-glyph-h="111.59" data-glyph-ascender="95.85581" data-glyph-descender="-15.734190000000002"></path><path d="M18.86 0L0.33 0L31.13-74.43L49.32-74.43L80.12 0L61.60 0L54.34-17.18L26.11-17.18L18.86 0ZM50.89-30.46L40.28-56.46L29.68-30.46L50.89-30.46Z" transform="translate(59.365880000000004 440.77) " fill="rgb(53, 53, 53)" stroke="rgb(53, 53, 53)" stroke-width="0.186" data-glyph-w="80.56798" data-glyph-h="111.59" data-glyph-ascender="95.85581" data-glyph-descender="-15.734190000000002"></path><path d="M62.04-74.43L79.90-74.43L47.31 0L31.47 0L0.11-74.43L17.97-74.43L39.84-18.41L62.04-74.43Z" transform="translate(139.93386 440.77) " fill="rgb(53, 53, 53)" stroke="rgb(53, 53, 53)" stroke-width="0.186" data-glyph-w="80.12162000000001" data-glyph-h="111.59" data-glyph-ascender="95.85581" data-glyph-descender="-15.734190000000002"></path><path d="M18.86 0L0.33 0L31.13-74.43L49.32-74.43L80.12 0L61.60 0L54.34-17.18L26.11-17.18L18.86 0ZM50.89-30.46L40.28-56.46L29.68-30.46L50.89-30.46Z" transform="translate(220.05548000000002 440.77) " fill="rgb(53, 53, 53)" stroke="rgb(53, 53, 53)" stroke-width="0.186" data-glyph-w="80.56798" data-glyph-h="111.59" data-glyph-ascender="95.85581" data-glyph-descender="-15.734190000000002"></path><path d="M1.45-74.43L17.85-74.43L34.59-18.41L50.22-74.43L67.85-74.43L83.47-18.41L100.21-74.43L116.50-74.43L92.51 0L74.43 0L59.03-53.67L43.63 0L25.55 0L1.45-74.43Z" transform="translate(300.62346 440.77) " fill="rgb(53, 53, 53)" stroke="rgb(53, 53, 53)" stroke-width="0.186" data-glyph-w="117.95063" data-glyph-h="111.59" data-glyph-ascender="95.85581" data-glyph-descender="-15.734190000000002"></path></g></svg></g></g>  <!----><defs><pattern id="wm_tile" x="0" y="0" width="20%" height="27%" patternunits="objectBoundingBox"><g id="wm_lm" transform="translate(-188.000000, -323.000000)" fill="#cccccc"><text font-size="15" transform="translate(270.490979, 373.245789) rotate(-390.000000) translate(-270.490979, -373.245789)"><tspan x="187.490979" opacity=".3" y="378.245789">copyright © copyright © </tspan></text></g></pattern></defs><rect x="0" y="0" width="100%" height="100%" style="fill: url(#wm_tile);"></rect></svg>