<?xml version="1.0" encoding="UTF-8"?><svg id="svg_canvas" data-noselect="" viewBox="0 0 800 600" width="800" height="600" preserveAspectRatio="none" version="1.1" xmlns="http://www.w3.org/2000/svg" xmlns:xlink="http://www.w3.org/1999/xlink"><defs></defs> <g id="background" data-noselect=""><rect fill="#ffffff" width="800" height="600" data-noselect=""></rect> <!----></g> <g id="shape_55Hk8Z9U1X" transform="translate(290.89954920370747,236.92) rotate(0,80,63.08) scale(1,1)" filter="" style="cursor: move; opacity: 1;"><g><rect fill="rgba(0,0,0,0)" width="180" height="146.16" x="-10" y="-10"></rect><svg version="1.1" id="图层_1" xmlns="http://www.w3.org/2000/svg" xmlns:xlink="http://www.w3.org/1999/xlink" x="0px" y="0px" viewBox="0 0 200 157.7" style="enable-background:new 0 0 200 157.7;" xml:space="preserve" width="160" height="126.16" class="style-removed" preserveAspectRatio="none" data-parent="shape_55Hk8Z9U1X">

<g>
	<path d="M192.9,148c-24.6,16.8-73.4,11.5-119.7-15.2c-12.8-7.4-24.3-15.8-34.2-24.7h7.7c8.8,7.1,18.6,13.8,29.3,20
		C122.2,154.8,169.8,162.1,192.9,148z" fill="#D6000F" stroke-width="0"></path>
	<path d="M200,132.9c-24.6,16.8-73.4,11.5-119.7-15.2c-5.3-3.1-10.4-6.3-15.2-9.6H75c2.6,1.7,5.4,3.3,8.1,4.9
		C129.3,139.7,176.9,147,200,132.9z" fill="#D6000F" stroke-width="0"></path>
	<path d="M135.4,25.1C86.8-2.9,35.8-7.8,12.6,12c0,0,0,0,0,0C12.2,12.4-2.2,23,0.3,44c0.1,0.5,0.1,1,0.2,1.5
		c0,0.2,0.1,0.4,0.1,0.7h1.1C0.8,39.8-0.6,23.7,12,14.1c0.1-0.1,2.2-1.5,2.3-1.6C37.3-1.9,85.4,5,131.8,31.8
		c7.9,4.6,15.6,9.4,22.8,14.4h12C157,38.7,146.5,31.5,135.4,25.1z" fill="#D6000F" stroke-width="0"></path>
</g>
</svg></g></g><g id="shape_Pqxo4NVRwU" transform="translate(227.39954920371247,107.33892224076999) rotate(0,177.9021196667,190.5) scale(1,1)" filter="" style="cursor: move; opacity: 1;"><g><svg xmlns="http://www.w3.org/2000/svg" version="1.1" xmlns:xlink="http://www.w3.org/1999/xlink" width="411" height="381" viewBox="0 0 411 381" data-parent="shape_Pqxo4NVRwU"><rect fill="rgba(0,0,0,0)" width="199" height="63" x="53" y="159"></rect><g data-width="198.803" transform="translate(53.0985, 0)"><path d="M8.74 0L0.74 0L0.74-6.31L7.95-6.31Q11.34-6.31 12.96-6.55Q14.57-6.78 15.42-7.53L15.42-7.53Q16.59-8.43 17.04-10.12Q17.49-11.82 17.49-15.48L17.49-15.48L17.49-35.35L24.96-35.35L24.96-15.48Q24.96-11.77 24.70-9.86Q24.43-7.95 23.64-6.25L23.64-6.25Q21.62-1.75 16.32-0.48L16.32-0.48Q13.78 0 8.74 0L8.74 0Z" transform="translate(0 209) " fill="rgb(0, 44, 192)" stroke="rgb(0, 44, 192)" stroke-width="0.088" data-glyph-w="28.195999999999998" data-glyph-h="53" data-glyph-ascender="45.527" data-glyph-descender="-7.473"></path><path d="M8.96 0L0.16 0L14.79-35.35L23.43-35.35L38.05 0L29.26 0L25.81-8.16L12.40-8.16L8.96 0ZM24.17-14.47L19.13-26.82L14.10-14.47L24.17-14.47Z" transform="translate(28.195999999999998 209) " fill="rgb(0, 44, 192)" stroke="rgb(0, 44, 192)" stroke-width="0.088" data-glyph-w="38.266" data-glyph-h="53" data-glyph-ascender="45.527" data-glyph-descender="-7.473"></path><path d="M29.47-35.35L37.95-35.35L22.47 0L14.95 0L0.05-35.35L8.53-35.35L18.92-8.74L29.47-35.35Z" transform="translate(66.46199999999999 209) " fill="rgb(0, 44, 192)" stroke="rgb(0, 44, 192)" stroke-width="0.088" data-glyph-w="38.054" data-glyph-h="53" data-glyph-ascender="45.527" data-glyph-descender="-7.473"></path><path d="M8.96 0L0.16 0L14.79-35.35L23.43-35.35L38.05 0L29.26 0L25.81-8.16L12.40-8.16L8.96 0ZM24.17-14.47L19.13-26.82L14.10-14.47L24.17-14.47Z" transform="translate(104.51599999999999 209) " fill="rgb(0, 44, 192)" stroke="rgb(0, 44, 192)" stroke-width="0.088" data-glyph-w="38.266" data-glyph-h="53" data-glyph-ascender="45.527" data-glyph-descender="-7.473"></path><path d="M0.69-35.35L8.48-35.35L16.43-8.74L23.85-35.35L32.22-35.35L39.64-8.74L47.59-35.35L55.33-35.35L43.94 0L35.35 0L28.04-25.49L20.72 0L12.14 0L0.69-35.35Z" transform="translate(142.78199999999998 209) " fill="rgb(0, 44, 192)" stroke="rgb(0, 44, 192)" stroke-width="0.088" data-glyph-w="56.021" data-glyph-h="53" data-glyph-ascender="45.527" data-glyph-descender="-7.473"></path></g></svg></g></g><g id="shape_v25NPm4s8T" transform="translate(378.5204507962875,288.09892224077) rotate(0,64.745994969188,46.8926266748684) scale(1,1)" filter="" style="cursor: move; opacity: 1;"><g><svg xmlns="http://www.w3.org/2000/svg" version="1.1" xmlns:xlink="http://www.w3.org/1999/xlink" width="180.32000000000002" height="93.48" viewBox="0 0 180.32000000000002 93.48" data-parent="shape_v25NPm4s8T"><rect fill="rgba(0,0,0,0)" width="128" height="15" x="13.08" y="39.24"></rect><g data-width="127.294355625" transform="translate(13.08, 0)"><path d="M5.11-1.34Q7.31-1.34 8.72-3.03L8.72-3.03L7.73-3.87Q6.70-2.64 5.11-2.64L5.11-2.64Q3.69-2.64 2.69-3.65L2.69-3.65Q1.69-4.65 1.69-6.07L1.69-6.07Q1.69-7.49 2.69-8.49L2.69-8.49Q3.69-9.48 5.11-9.48L5.11-9.48Q6.70-9.48 7.73-8.26L7.73-8.26L8.72-9.10Q7.31-10.79 5.11-10.79L5.11-10.79Q3.15-10.79 1.77-9.41L1.77-9.41Q0.38-8.02 0.38-6.07L0.38-6.07Q0.38-4.11 1.77-2.73L1.77-2.73Q3.15-1.34 5.11-1.34L5.11-1.34Z" transform="translate(0 50.24) " fill="#d6000f" stroke="#d6000f" stroke-width="0.022" data-glyph-w="9.1074609375" data-glyph-h="13.6292578125" data-glyph-ascender="10.959609375" data-glyph-descender="-2.6696484375"></path><path d="M5.11-10.79Q7.06-10.79 8.45-9.41L8.45-9.41Q9.83-8.02 9.83-6.07L9.83-6.07Q9.83-4.11 8.45-2.73L8.45-2.73Q7.06-1.34 5.11-1.34L5.11-1.34Q3.15-1.34 1.77-2.73L1.77-2.73Q0.38-4.11 0.38-6.07L0.38-6.07Q0.38-8.02 1.77-9.41L1.77-9.41Q3.15-10.79 5.11-10.79L5.11-10.79ZM5.11-9.48L5.11-9.48Q3.69-9.48 2.69-8.49L2.69-8.49Q1.69-7.49 1.69-6.07L1.69-6.07Q1.69-4.65 2.69-3.65L2.69-3.65Q3.69-2.64 5.11-2.64L5.11-2.64Q6.53-2.64 7.52-3.65L7.52-3.65Q8.53-4.65 8.53-6.07L8.53-6.07Q8.53-7.49 7.52-8.49L7.52-8.49Q6.53-9.48 5.11-9.48Z" transform="translate(9.1074609375 50.24) " fill="#d6000f" stroke="#d6000f" stroke-width="0.022" data-glyph-w="10.212363281250001" data-glyph-h="13.6292578125" data-glyph-ascender="10.959609375" data-glyph-descender="-2.6696484375"></path><path d="M4.80-4.27L1.94-8.35L1.94-1.51L0.64-1.51L0.64-10.63L1.94-10.63L5.36-5.74L8.78-10.63L10.08-10.63L10.08-1.51L8.78-1.51L8.78-8.36L5.92-4.27L4.80-4.27Z" transform="translate(19.31982421875 50.24) " fill="#d6000f" stroke="#d6000f" stroke-width="0.022" data-glyph-w="10.72330078125" data-glyph-h="13.6292578125" data-glyph-ascender="10.959609375" data-glyph-descender="-2.6696484375"></path><path d="M4.39-4.76L1.94-4.76L1.94-1.51L0.64-1.51L0.64-10.63L4.39-10.63Q5.60-10.63 6.46-9.77L6.46-9.77Q7.32-8.91 7.32-7.70L7.32-7.70Q7.32-6.48 6.46-5.62L6.46-5.62Q5.60-4.76 4.39-4.76L4.39-4.76ZM4.39-9.32L1.94-9.32L1.94-6.07L4.39-6.07Q5.06-6.07 5.54-6.55L5.54-6.55Q6.02-7.02 6.02-7.70L6.02-7.70Q6.02-8.37 5.54-8.85L5.54-8.85Q5.06-9.32 4.39-9.32L4.39-9.32Z" transform="translate(30.043125 50.24) " fill="#d6000f" stroke="#d6000f" stroke-width="0.022" data-glyph-w="7.7023828125" data-glyph-h="13.6292578125" data-glyph-ascender="10.959609375" data-glyph-descender="-2.6696484375"></path><path d="M4.22-1.34Q5.71-1.34 6.76-2.20L6.76-2.20Q7.80-3.06 7.80-4.27L7.80-4.27L7.80-10.63L6.50-10.63L6.50-4.27Q6.50-3.60 5.84-3.12L5.84-3.12Q5.17-2.64 4.22-2.64L4.22-2.64Q3.28-2.64 2.61-3.12L2.61-3.12Q1.94-3.60 1.94-4.27L1.94-4.27L1.94-10.63L0.64-10.63L0.64-4.27Q0.64-3.06 1.69-2.20L1.69-2.20Q2.74-1.34 4.22-1.34L4.22-1.34Z" transform="translate(37.7455078125 50.24) " fill="#d6000f" stroke="#d6000f" stroke-width="0.022" data-glyph-w="8.4432421875" data-glyph-h="13.6292578125" data-glyph-ascender="10.959609375" data-glyph-descender="-2.6696484375"></path><path d="M3.15-1.51L3.15-9.32L0.38-9.32L0.38-10.63L7.22-10.63L7.22-9.32L4.45-9.32L4.45-1.51L3.15-1.51Z" transform="translate(46.18875 50.24) " fill="#d6000f" stroke="#d6000f" stroke-width="0.022" data-glyph-w="7.60658203125" data-glyph-h="13.6292578125" data-glyph-ascender="10.959609375" data-glyph-descender="-2.6696484375"></path><path d="M0.64-10.63L7.15-10.63L7.15-9.32L1.94-9.32L1.94-6.72L7.15-6.72L7.15-5.42L1.94-5.42L1.94-2.81L7.15-2.81L7.15-1.51L0.64-1.51L0.64-10.63Z" transform="translate(53.79533203125 50.24) " fill="#d6000f" stroke="#d6000f" stroke-width="0.022" data-glyph-w="7.536328125" data-glyph-h="13.6292578125" data-glyph-ascender="10.959609375" data-glyph-descender="-2.6696484375"></path><path d="M4.36-5.09L1.94-5.09L1.94-1.51L0.64-1.51L0.64-10.63L5.04-10.63Q6.18-10.63 6.99-9.82L6.99-9.82Q7.80-9.01 7.80-7.86L7.80-7.86Q7.80-6.71 6.99-5.90L6.99-5.90Q6.50-5.40 5.87-5.21L5.87-5.21L8.46-1.51L6.87-1.51L4.36-5.09ZM5.04-9.32L1.94-9.32L1.94-6.39L5.04-6.39Q5.65-6.39 6.07-6.82L6.07-6.82Q6.50-7.25 6.50-7.86L6.50-7.86Q6.50-8.46 6.07-8.90L6.07-8.90Q5.65-9.32 5.04-9.32L5.04-9.32Z" transform="translate(61.331660156249995 50.24) " fill="#d6000f" stroke="#d6000f" stroke-width="0.022" data-glyph-w="8.1877734375" data-glyph-h="13.6292578125" data-glyph-ascender="10.959609375" data-glyph-descender="-2.6696484375"></path><path d="" transform="translate(69.51943359375 50.24) " fill="#d6000f" stroke="#d6000f" stroke-width="0.022" data-glyph-w="5.20584" data-glyph-h="13.08" data-glyph-ascender="11.510399999999999" data-glyph-descender="-1.5695999999999999"></path><path d="M4.13-1.34Q5.68-1.34 6.78-2.14L6.78-2.14Q7.87-2.94 7.87-4.07L7.87-4.07Q7.87-5.29 6.96-5.95L6.96-5.95Q6.32-6.40 4.94-6.70L4.94-6.70Q3.19-7.08 2.93-7.17L2.93-7.17Q2.01-7.52 2.01-8.23L2.01-8.23Q2.01-8.75 2.63-9.12L2.63-9.12Q3.25-9.48 4.13-9.48L4.13-9.48Q4.92-9.48 5.52-9.08L5.52-9.08Q6.12-8.69 6.23-8.09L6.23-8.09L7.54-8.09Q7.44-9.22 6.46-10.01L6.46-10.01Q5.47-10.79 4.13-10.79L4.13-10.79Q2.71-10.79 1.71-10.04L1.71-10.04Q0.71-9.29 0.71-8.23L0.71-8.23Q0.71-7.03 1.62-6.41L1.62-6.41Q2.25-5.98 3.64-5.69L3.64-5.69Q5.30-5.35 5.66-5.20L5.66-5.20Q6.57-4.83 6.57-4.07L6.57-4.07Q6.57-3.48 5.86-3.07L5.86-3.07Q5.14-2.64 4.13-2.64L4.13-2.64Q3.12-2.64 2.40-3.17L2.40-3.17Q1.69-3.70 1.69-4.44L1.69-4.44L0.38-4.44Q0.38-3.16 1.48-2.25L1.48-2.25Q2.58-1.34 4.13-1.34L4.13-1.34Z" transform="translate(74.72527359374999 50.24) " fill="#d6000f" stroke="#d6000f" stroke-width="0.022" data-glyph-w="8.25802734375" data-glyph-h="13.6292578125" data-glyph-ascender="10.959609375" data-glyph-descender="-2.6696484375"></path><path d="M5.11-1.34Q7.31-1.34 8.72-3.03L8.72-3.03L7.73-3.87Q6.70-2.64 5.11-2.64L5.11-2.64Q3.69-2.64 2.69-3.65L2.69-3.65Q1.69-4.65 1.69-6.07L1.69-6.07Q1.69-7.49 2.69-8.49L2.69-8.49Q3.69-9.48 5.11-9.48L5.11-9.48Q6.70-9.48 7.73-8.26L7.73-8.26L8.72-9.10Q7.31-10.79 5.11-10.79L5.11-10.79Q3.15-10.79 1.77-9.41L1.77-9.41Q0.38-8.02 0.38-6.07L0.38-6.07Q0.38-4.11 1.77-2.73L1.77-2.73Q3.15-1.34 5.11-1.34L5.11-1.34Z" transform="translate(82.98330093749999 50.24) " fill="#d6000f" stroke="#d6000f" stroke-width="0.022" data-glyph-w="9.1074609375" data-glyph-h="13.6292578125" data-glyph-ascender="10.959609375" data-glyph-descender="-2.6696484375"></path><path d="M1.94-1.51L1.94-10.63L0.64-10.63L0.64-1.51L1.94-1.51Z" transform="translate(92.090761875 50.24) " fill="#d6000f" stroke="#d6000f" stroke-width="0.022" data-glyph-w="2.580234375" data-glyph-h="13.6292578125" data-glyph-ascender="10.959609375" data-glyph-descender="-2.6696484375"></path><path d="M0.64-10.63L7.15-10.63L7.15-9.32L1.94-9.32L1.94-6.72L7.15-6.72L7.15-5.42L1.94-5.42L1.94-2.81L7.15-2.81L7.15-1.51L0.64-1.51L0.64-10.63Z" transform="translate(94.67099625 50.24) " fill="#d6000f" stroke="#d6000f" stroke-width="0.022" data-glyph-w="7.536328125" data-glyph-h="13.6292578125" data-glyph-ascender="10.959609375" data-glyph-descender="-2.6696484375"></path><path d="M1.93-10.63L0.64-10.63L0.64-1.51L1.94-1.51L1.94-8.28L6.51-1.51L7.80-1.51L7.80-10.63L6.50-10.63L6.50-3.85L1.93-10.63Z" transform="translate(102.207324375 50.24) " fill="#d6000f" stroke="#d6000f" stroke-width="0.022" data-glyph-w="8.4432421875" data-glyph-h="13.6292578125" data-glyph-ascender="10.959609375" data-glyph-descender="-2.6696484375"></path><path d="M5.11-1.34Q7.31-1.34 8.72-3.03L8.72-3.03L7.73-3.87Q6.70-2.64 5.11-2.64L5.11-2.64Q3.69-2.64 2.69-3.65L2.69-3.65Q1.69-4.65 1.69-6.07L1.69-6.07Q1.69-7.49 2.69-8.49L2.69-8.49Q3.69-9.48 5.11-9.48L5.11-9.48Q6.70-9.48 7.73-8.26L7.73-8.26L8.72-9.10Q7.31-10.79 5.11-10.79L5.11-10.79Q3.15-10.79 1.77-9.41L1.77-9.41Q0.38-8.02 0.38-6.07L0.38-6.07Q0.38-4.11 1.77-2.73L1.77-2.73Q3.15-1.34 5.11-1.34L5.11-1.34Z" transform="translate(110.6505665625 50.24) " fill="#d6000f" stroke="#d6000f" stroke-width="0.022" data-glyph-w="9.1074609375" data-glyph-h="13.6292578125" data-glyph-ascender="10.959609375" data-glyph-descender="-2.6696484375"></path><path d="M0.64-10.63L7.15-10.63L7.15-9.32L1.94-9.32L1.94-6.72L7.15-6.72L7.15-5.42L1.94-5.42L1.94-2.81L7.15-2.81L7.15-1.51L0.64-1.51L0.64-10.63Z" transform="translate(119.7580275 50.24) " fill="#d6000f" stroke="#d6000f" stroke-width="0.022" data-glyph-w="7.536328125" data-glyph-h="13.6292578125" data-glyph-ascender="10.959609375" data-glyph-descender="-2.6696484375"></path></g></svg></g></g>  <!----><defs><pattern id="wm_tile" x="0" y="0" width="20%" height="27%" patternunits="objectBoundingBox"><g id="wm_lm" transform="translate(-188.000000, -323.000000)" fill="#cccccc"><text font-size="15" transform="translate(270.490979, 373.245789) rotate(-390.000000) translate(-270.490979, -373.245789)"><tspan x="187.490979" opacity=".3" y="378.245789">copyright © copyright © </tspan></text></g></pattern></defs><rect x="0" y="0" width="100%" height="100%" style="fill: url(#wm_tile);"></rect></svg>